<svg width="46" height="46" viewBox="0 0 46 46" fill="none" xmlns="http://www.w3.org/2000/svg">
<path d="M17.2883 28.7596V25.1084" stroke="#E31F26" stroke-width="1.2" stroke-miterlimit="10" stroke-linecap="round"/>
<path d="M17.2883 23.5654C20.7445 23.5654 23.5462 20.7636 23.5462 17.3075C23.5462 13.8513 20.7445 11.0496 17.2883 11.0496C13.8322 11.0496 11.0304 13.8513 11.0304 17.3075C11.0304 20.7636 13.8322 23.5654 17.2883 23.5654Z" stroke="#E31F26" stroke-width="1.2" stroke-miterlimit="10"/>
<path d="M17.2883 9.43958V5.78833M5.8075 17.2787H9.44916M25.1275 17.2787H28.7787M9.17124 9.15208L11.7492 11.73M22.8275 22.8179L25.415 25.3958M25.415 9.15208L22.8275 11.73M11.7492 22.8179L9.17124 25.3958M35.9183 22.1087L21.0162 37.0108L13.4358 29.4496" stroke="#E31F26" stroke-width="1.2" stroke-miterlimit="10" stroke-linecap="round"/>
<path d="M28.7596 22.1086H35.9183V29.277" stroke="#E31F26" stroke-width="1.2" stroke-miterlimit="10" stroke-linecap="round"/>
<path d="M8.13623 39.6941H38.0266" stroke="#E31F26" stroke-width="1.2" stroke-miterlimit="10" stroke-linecap="square"/>
</svg>
