<svg width="34" height="41" viewBox="0 0 34 41" fill="none" xmlns="http://www.w3.org/2000/svg">
<path d="M31.0533 7.74444L17.9067 0.113889C17.68 -1.1031e-07 17.5667 0 17.5667 0H9.63333C8.04667 0 6.8 1.25278 6.8 2.84722V10.25H3.4C1.47333 10.25 0 11.7306 0 13.6667V27.3333C0 29.2694 1.47333 30.75 3.4 30.75H6.8V38.1528C6.8 39.7472 8.04667 41 9.63333 41H31.1667C32.7533 41 34 39.7472 34 38.1528V12.5278C34 10.3639 32.7533 8.65556 31.0533 7.74444ZM27.88 7.28889C26.0667 7.51667 24.48 8.76944 23.8 10.4778L19.04 2.16389L27.88 7.28889ZM1.13333 27.3333V13.6667C1.13333 12.4139 2.15333 11.3889 3.4 11.3889H9.06667V29.6111H3.4C2.15333 29.6111 1.13333 28.5861 1.13333 27.3333ZM18.1333 11.3889V29.6111H13.6V11.3889H18.1333ZM12.4667 29.6111H10.2V11.3889H12.4667V29.6111ZM32.8667 38.1528C32.8667 39.0639 32.0733 39.8611 31.1667 39.8611H9.63333C8.72667 39.8611 7.93333 39.0639 7.93333 38.1528V30.75H18.1333C18.8133 30.75 19.2667 30.2944 19.2667 29.6111V25.625C20.4 24.9417 24.3667 22.6639 24.3667 22.6639C25.0467 22.3222 24.48 21.2972 23.8 21.6389L19.2667 24.2583V21.9806C20.2867 21.4111 25.84 18.2222 25.84 18.2222C26.52 17.8806 25.9533 16.8556 25.2733 17.1972L19.2667 20.6139V11.3889C19.2667 10.7056 18.8133 10.25 18.1333 10.25H7.93333V2.84722C7.93333 1.93611 8.72667 1.13889 9.63333 1.13889H17.2267L23.5733 12.1861C23.6867 12.4139 23.9133 12.5278 24.14 12.4139C24.3667 12.4139 24.5933 12.1861 24.5933 11.9583C24.82 9.225 27.88 7.51667 30.3733 8.65556C31.8467 9.33889 32.8667 10.7056 32.8667 12.4139V38.1528Z" fill="#E31F26"/>
</svg>
