<svg width="29" height="35" viewBox="0 0 29 35" fill="none" xmlns="http://www.w3.org/2000/svg">
<path d="M14.5 22.5658C13.8308 22.5658 13.1767 22.7549 12.6203 23.1091C12.0639 23.4633 11.6303 23.9668 11.3742 24.5558C11.1181 25.1449 11.0511 25.793 11.1817 26.4184C11.3122 27.0437 11.6345 27.6181 12.1076 28.069C12.5808 28.5198 13.1836 28.8268 13.8399 28.9512C14.4962 29.0756 15.1765 29.0118 15.7947 28.7678C16.413 28.5238 16.9414 28.1106 17.3131 27.5805C17.6849 27.0503 17.8833 26.4271 17.8833 25.7895C17.8833 24.9345 17.5269 24.1145 16.8924 23.51C16.2579 22.9054 15.3973 22.5658 14.5 22.5658ZM14.5 28.0921C14.022 28.0921 13.5548 27.9571 13.1574 27.704C12.76 27.451 12.4502 27.0914 12.2673 26.6707C12.0844 26.2499 12.0365 25.7869 12.1298 25.3403C12.223 24.8936 12.4532 24.4833 12.7912 24.1613C13.1291 23.8392 13.5597 23.6199 14.0285 23.5311C14.4973 23.4422 14.9832 23.4878 15.4248 23.6621C15.8664 23.8364 16.2438 24.1315 16.5094 24.5102C16.7749 24.8889 16.9167 25.3341 16.9167 25.7895C16.9167 26.4002 16.6621 26.9859 16.2088 27.4177C15.7556 27.8495 15.1409 28.0921 14.5 28.0921ZM0 0V33.1579H12.5667V35H16.4333V33.1579H29V0H0ZM15.4667 34.0789H13.5333V31.1224C13.8397 31.2449 14.1678 31.3105 14.5 31.3158C14.8325 31.3129 15.161 31.2471 15.4667 31.1224V34.0789ZM16.1723 29.6855C15.9061 29.7996 15.6506 29.9352 15.4087 30.0908C15.3035 30.159 15.1937 30.2205 15.08 30.275C14.8983 30.3553 14.7002 30.3962 14.5 30.3947C14.3066 30.3909 14.116 30.3501 13.9393 30.275C13.8257 30.2205 13.7159 30.159 13.6107 30.0908C13.3661 29.9262 13.1036 29.7872 12.8277 29.6763C12.5583 29.576 12.2801 29.499 11.9963 29.4461C11.8713 29.4299 11.7483 29.4021 11.629 29.3632C11.4266 29.285 11.2425 29.1691 11.0877 29.0224C10.9553 28.8886 10.8504 28.7324 10.7783 28.5618C10.7414 28.4471 10.7123 28.3302 10.6913 28.2118C10.6355 27.9315 10.5513 27.657 10.44 27.3921C10.3261 27.1357 10.1835 26.8917 10.0147 26.6645C9.94308 26.5642 9.8785 26.4596 9.82133 26.3513C9.72857 26.1766 9.67585 25.9851 9.66667 25.7895C9.67436 25.6086 9.71696 25.4306 9.79233 25.2645C9.85034 25.1547 9.91826 25.0499 9.99533 24.9513C10.1643 24.716 10.3099 24.4662 10.4303 24.2053C10.5282 23.9471 10.6058 23.6823 10.6623 23.4132C10.6793 23.2941 10.7084 23.1768 10.7493 23.0632C10.8314 22.8703 10.953 22.6949 11.107 22.5474C11.2487 22.4229 11.4123 22.3231 11.5903 22.2526C11.7135 22.2154 11.8395 22.1877 11.9673 22.1697C12.2613 22.1155 12.5493 22.0353 12.8277 21.9303C13.0928 21.82 13.3455 21.6842 13.5817 21.525C13.6869 21.4568 13.7967 21.3953 13.9103 21.3408C14.093 21.2492 14.294 21.1958 14.5 21.1842C14.6931 21.1904 14.8833 21.231 15.0607 21.3039C15.1743 21.3584 15.2841 21.42 15.3893 21.4882C15.637 21.6506 15.899 21.7924 16.1723 21.9118C16.4464 22.0055 16.7276 22.0794 17.0133 22.1329C17.1351 22.1496 17.2548 22.1774 17.371 22.2158C17.5723 22.296 17.7559 22.4116 17.9123 22.5566C18.0447 22.6904 18.1496 22.8466 18.2217 23.0171C18.2586 23.1318 18.2877 23.2488 18.3087 23.3671C18.365 23.6503 18.4492 23.9278 18.56 24.1961C18.6758 24.4487 18.8183 24.6894 18.9853 24.9145C19.0627 25.0342 19.1303 25.1263 19.1787 25.2184C19.2836 25.3919 19.337 25.5893 19.3333 25.7895C19.3284 25.9885 19.2858 26.1851 19.2077 26.3697C19.1505 26.4781 19.0859 26.5827 19.0143 26.6829C18.8416 26.9159 18.6957 27.1661 18.5793 27.4289C18.4735 27.6885 18.3926 27.9567 18.3377 28.2303C18.3201 28.3462 18.291 28.4604 18.2507 28.5711C18.1686 28.7639 18.047 28.9393 17.893 29.0868C17.7541 29.2148 17.5898 29.315 17.4097 29.3816C17.2892 29.4168 17.1665 29.4445 17.0423 29.4645C16.7457 29.5122 16.4545 29.5862 16.1723 29.6855ZM28.0333 32.2368H16.4333V30.5882L16.559 30.5237C17.023 30.3579 17.3517 30.3579 17.7287 30.2289C18.0519 30.1197 18.3458 29.9436 18.589 29.7132C18.8377 29.4707 19.0318 29.1823 19.1593 28.8658C19.2947 28.5066 19.2947 28.1934 19.4783 27.7513C19.662 27.3092 19.9037 27.0974 20.0777 26.7474C20.2132 26.4439 20.2886 26.1191 20.3 25.7895C20.305 25.4699 20.2287 25.1538 20.0777 24.8684C19.9037 24.5184 19.6717 24.2974 19.4783 23.8645C19.285 23.4316 19.2947 23.1092 19.1593 22.75C19.0394 22.4445 18.8552 22.1655 18.618 21.9303C18.3604 21.6971 18.0586 21.5126 17.7287 21.3868C17.3517 21.2579 17.023 21.2579 16.559 21.0921C16.095 20.9263 15.8727 20.6776 15.5053 20.5118C15.1902 20.3679 14.8488 20.2834 14.5 20.2632C14.1662 20.2719 13.8376 20.3439 13.5333 20.475C13.166 20.6408 12.934 20.8618 12.4797 21.0553C12.0253 21.2487 11.687 21.2211 11.31 21.35C10.9872 21.4646 10.6939 21.6436 10.4497 21.875C10.1998 22.1131 10.0055 22.3987 9.87933 22.7132C9.744 23.0724 9.744 23.3855 9.57 23.8276C9.396 24.2697 9.135 24.4816 8.961 24.8316C8.81414 25.1315 8.73804 25.4585 8.73804 25.7895C8.73804 26.1205 8.81414 26.4474 8.961 26.7474C9.135 27.0974 9.367 27.3184 9.57 27.7513C9.773 28.1842 9.744 28.5066 9.87933 28.8658C9.99679 29.1747 10.185 29.4547 10.4303 29.6855C10.6802 29.9236 10.9799 30.1087 11.31 30.2289C11.687 30.3579 12.0157 30.3579 12.4797 30.5329L12.6053 30.5882V32.2368H0.966667V0.921053H28.0333V32.2368ZM22.2333 4.60526H6.76667V5.52632H22.2333V4.60526ZM6.76667 14.7368H22.2333V13.8158H6.76667V14.7368ZM6.76667 11.9737H22.2333V11.0526H6.76667V11.9737ZM6.76667 17.5H22.2333V16.5789H6.76667V17.5Z" fill="#E31F26"/>
</svg>
