<svg width="51" height="39" viewBox="0 0 51 39" fill="none" xmlns="http://www.w3.org/2000/svg">
<g filter="url(#filter0_d_170_70)">
<path d="M45.8093 16.3563C45.5437 16.3563 45.2782 16.1763 45.2339 15.9062C41.5159 4.65552 29.5211 -1.37486 18.5 2.40538C12.2592 4.56552 7.34616 9.56084 5.22161 15.9062C5.13309 16.2213 4.779 16.4013 4.42491 16.3113C4.07082 16.2213 3.93803 15.8612 4.02656 15.5012C7.96582 3.62046 20.6246 -2.81495 32.3538 1.1903C38.993 3.44045 44.1716 8.75078 46.4289 15.5012C46.5175 15.8162 46.3847 16.1763 46.0306 16.3113C45.9863 16.3113 45.8978 16.3113 45.8093 16.3113V16.3563Z" fill="#E31F26"/>
<path d="M38.5062 20.6315C38.2406 20.6315 38.0193 20.4515 37.9308 20.2265C35.1866 13.071 27.2638 9.56078 20.2262 12.351C16.6853 13.746 13.8968 16.6262 12.4805 20.2265C12.392 20.5415 12.0379 20.7215 11.6838 20.6315C11.3739 20.5415 11.1969 20.1815 11.2854 19.8214C11.2854 19.8214 11.2854 19.7764 11.2854 19.7314C14.2952 11.9459 22.9262 8.07569 30.5834 11.1359C34.4784 12.666 37.5324 15.7712 39.0373 19.7314C39.1701 20.0465 39.0373 20.4065 38.6832 20.5415C38.5947 20.5415 38.5504 20.5415 38.4619 20.5415L38.5062 20.6315Z" fill="#E31F26"/>
<path d="M31.5571 24.7267C31.2916 24.7267 31.0703 24.5467 30.9817 24.3217C29.7424 21.0815 26.1572 19.4614 22.9704 20.7215C21.3328 21.3515 20.0492 22.6566 19.4295 24.3217C19.341 24.6367 18.9869 24.8167 18.6328 24.7267C18.323 24.6367 18.1459 24.2767 18.2345 23.9167C18.2345 23.9167 18.2345 23.8717 18.2345 23.8267C19.6951 19.9114 23.9884 17.9763 27.8392 19.4614C29.8309 20.2264 31.3801 21.8015 32.1325 23.8267C32.2653 24.1417 32.1325 24.5017 31.7784 24.6367C31.6899 24.6367 31.6457 24.6817 31.5571 24.6817V24.7267Z" fill="#E31F26"/>
<path d="M25.1835 26.5269C25.8917 26.5269 26.4229 27.112 26.4229 27.787C26.4229 28.5071 25.8475 29.0471 25.1835 29.0471C24.5196 29.0471 23.9442 28.4621 23.9442 27.787C23.9442 27.112 24.5196 26.5269 25.1835 26.5269ZM25.1835 25.2668C23.8114 25.2668 22.7049 26.3919 22.7049 27.787C22.7049 29.1821 23.8114 30.3072 25.1835 30.3072C26.5556 30.3072 27.6622 29.1821 27.6622 27.787C27.6622 26.3919 26.5556 25.2668 25.1835 25.2668Z" fill="#E31F26"/>
</g>
<defs>
<filter id="filter0_d_170_70" x="0" y="0" width="50.4555" height="38.3071" filterUnits="userSpaceOnUse" color-interpolation-filters="sRGB">
<feFlood flood-opacity="0" result="BackgroundImageFix"/>
<feColorMatrix in="SourceAlpha" type="matrix" values="0 0 0 0 0 0 0 0 0 0 0 0 0 0 0 0 0 0 127 0" result="hardAlpha"/>
<feOffset dy="4"/>
<feGaussianBlur stdDeviation="2"/>
<feComposite in2="hardAlpha" operator="out"/>
<feColorMatrix type="matrix" values="0 0 0 0 0 0 0 0 0 0 0 0 0 0 0 0 0 0 0.25 0"/>
<feBlend mode="normal" in2="BackgroundImageFix" result="effect1_dropShadow_170_70"/>
<feBlend mode="normal" in="SourceGraphic" in2="effect1_dropShadow_170_70" result="shape"/>
</filter>
</defs>
</svg>
