<svg xmlns="http://www.w3.org/2000/svg" fill="none" viewBox="0 40.898395721925134 1280 153.36898395721926" style="max-height: 500px" width="1280" height="153.36898395721926">
<g filter="url(#filter0_f_170_164)" style="mix-blend-mode:overlay">
<path fill="url(#paint0_linear_170_164)" d="M5.61563 50.2H104.216V66.2H24.6156V111.6H98.8156V127.6H24.6156V177H104.816V193H5.61563V50.2ZM125.081 89.6H141.081V106H141.481C148.548 93.4667 159.748 87.2 175.081 87.2C181.881 87.2 187.548 88.1333 192.081 90C196.615 91.8667 200.281 94.4667 203.081 97.8C205.881 101.133 207.815 105.133 208.881 109.8C210.081 114.333 210.681 119.4 210.681 125V193H193.681V123C193.681 116.6 191.815 111.533 188.081 107.8C184.348 104.067 179.215 102.2 172.681 102.2C167.481 102.2 162.948 103 159.081 104.6C155.348 106.2 152.215 108.467 149.681 111.4C147.148 114.333 145.215 117.8 143.881 121.8C142.681 125.667 142.081 129.933 142.081 134.6V193H125.081V89.6ZM306.414 122.8C305.081 116.267 302.281 111.2 298.014 107.6C293.747 104 288.014 102.2 280.814 102.2C274.681 102.2 269.547 103.333 265.414 105.6C261.281 107.867 257.947 110.867 255.414 114.6C253.014 118.333 251.281 122.667 250.214 127.6C249.147 132.4 248.614 137.4 248.614 142.6C248.614 147.4 249.147 152.067 250.214 156.6C251.414 161.133 253.214 165.2 255.614 168.8C258.014 172.267 261.147 175.067 265.014 177.2C268.881 179.333 273.481 180.4 278.814 180.4C287.214 180.4 293.747 178.2 298.414 173.8C303.214 169.4 306.147 163.2 307.214 155.2H324.614C322.747 168 317.947 177.867 310.214 184.8C302.614 191.733 292.214 195.2 279.014 195.2C271.147 195.2 264.147 193.933 258.014 191.4C252.014 188.867 246.947 185.267 242.814 180.6C238.814 175.933 235.747 170.4 233.614 164C231.614 157.467 230.614 150.333 230.614 142.6C230.614 134.867 231.614 127.667 233.614 121C235.614 114.2 238.614 108.333 242.614 103.4C246.747 98.3333 251.881 94.4 258.014 91.6C264.147 88.6667 271.281 87.2 279.414 87.2C285.281 87.2 290.747 87.9333 295.814 89.4C301.014 90.7333 305.547 92.8667 309.414 95.8C313.414 98.7333 316.681 102.467 319.214 107C321.747 111.4 323.347 116.667 324.014 122.8H306.414ZM356.036 141.4C356.036 147.667 356.836 153.267 358.436 158.2C360.169 163 362.503 167.067 365.436 170.4C368.369 173.6 371.769 176.067 375.636 177.8C379.636 179.533 383.836 180.4 388.236 180.4C392.636 180.4 396.769 179.533 400.636 177.8C404.636 176.067 408.103 173.6 411.036 170.4C413.969 167.067 416.236 163 417.836 158.2C419.569 153.267 420.436 147.667 420.436 141.4C420.436 135.133 419.569 129.6 417.836 124.8C416.236 119.867 413.969 115.733 411.036 112.4C408.103 109.067 404.636 106.533 400.636 104.8C396.769 103.067 392.636 102.2 388.236 102.2C383.836 102.2 379.636 103.067 375.636 104.8C371.769 106.533 368.369 109.067 365.436 112.4C362.503 115.733 360.169 119.867 358.436 124.8C356.836 129.6 356.036 135.133 356.036 141.4ZM338.036 141.4C338.036 133.8 339.103 126.733 341.236 120.2C343.369 113.533 346.569 107.8 350.836 103C355.103 98.0667 360.369 94.2 366.636 91.4C372.903 88.6 380.103 87.2 388.236 87.2C396.503 87.2 403.703 88.6 409.836 91.4C416.103 94.2 421.369 98.0667 425.636 103C429.903 107.8 433.103 113.533 435.236 120.2C437.369 126.733 438.436 133.8 438.436 141.4C438.436 149 437.369 156.067 435.236 162.6C433.103 169.133 429.903 174.867 425.636 179.8C421.369 184.6 416.103 188.4 409.836 191.2C403.703 193.867 396.503 195.2 388.236 195.2C380.103 195.2 372.903 193.867 366.636 191.2C360.369 188.4 355.103 184.6 350.836 179.8C346.569 174.867 343.369 169.133 341.236 162.6C339.103 156.067 338.036 149 338.036 141.4ZM457.88 89.6H473.88V111.4H474.28C478.413 103 483.48 96.8 489.48 92.8C495.48 88.8 503.08 86.9333 512.28 87.2V105.2C505.48 105.2 499.68 106.133 494.88 108C490.08 109.867 486.213 112.6 483.28 116.2C480.346 119.8 478.213 124.2 476.88 129.4C475.546 134.467 474.88 140.333 474.88 147V193H457.88V89.6ZM593.366 131.4C593.099 127.4 592.166 123.6 590.566 120C589.099 116.4 587.032 113.333 584.366 110.8C581.832 108.133 578.766 106.067 575.166 104.6C571.699 103 567.832 102.2 563.566 102.2C559.166 102.2 555.166 103 551.566 104.6C548.099 106.067 545.099 108.133 542.566 110.8C540.032 113.467 538.032 116.6 536.566 120.2C535.099 123.667 534.232 127.4 533.966 131.4H593.366ZM609.766 160.2C607.499 171.8 602.499 180.533 594.766 186.4C587.032 192.267 577.299 195.2 565.566 195.2C557.299 195.2 550.099 193.867 543.966 191.2C537.966 188.533 532.899 184.8 528.766 180C524.632 175.2 521.499 169.467 519.366 162.8C517.366 156.133 516.232 148.867 515.966 141C515.966 133.133 517.166 125.933 519.566 119.4C521.966 112.867 525.299 107.2 529.566 102.4C533.966 97.6 539.099 93.8667 544.966 91.2C550.966 88.5333 557.499 87.2 564.566 87.2C573.766 87.2 581.366 89.1333 587.366 93C593.499 96.7333 598.366 101.533 601.966 107.4C605.699 113.267 608.232 119.667 609.566 126.6C611.032 133.533 611.632 140.133 611.366 146.4H533.966C533.832 150.933 534.366 155.267 535.566 159.4C536.766 163.4 538.699 167 541.366 170.2C544.032 173.267 547.432 175.733 551.566 177.6C555.699 179.467 560.566 180.4 566.166 180.4C573.366 180.4 579.232 178.733 583.766 175.4C588.432 172.067 591.499 167 592.966 160.2H609.766ZM825.716 92C824.649 81.7333 820.916 74.3333 814.516 69.8C808.249 65.1333 800.182 62.8 790.316 62.8C786.316 62.8 782.382 63.2 778.516 64C774.649 64.8 771.182 66.1333 768.116 68C765.182 69.8667 762.782 72.4 760.916 75.6C759.182 78.6667 758.316 82.5333 758.316 87.2C758.316 91.6 759.582 95.2 762.116 98C764.782 100.667 768.249 102.867 772.516 104.6C776.916 106.333 781.849 107.8 787.316 109C792.782 110.067 798.316 111.267 803.916 112.6C809.649 113.933 815.249 115.533 820.716 117.4C826.182 119.133 831.049 121.533 835.316 124.6C839.716 127.667 843.182 131.533 845.716 136.2C848.382 140.867 849.716 146.733 849.716 153.8C849.716 161.4 847.982 167.933 844.516 173.4C841.182 178.733 836.849 183.133 831.516 186.6C826.182 189.933 820.182 192.333 813.516 193.8C806.982 195.4 800.449 196.2 793.916 196.2C785.916 196.2 778.316 195.2 771.116 193.2C764.049 191.2 757.782 188.2 752.316 184.2C746.982 180.067 742.716 174.867 739.516 168.6C736.449 162.2 734.916 154.667 734.916 146H752.916C752.916 152 754.049 157.2 756.316 161.6C758.716 165.867 761.782 169.4 765.516 172.2C769.382 175 773.849 177.067 778.916 178.4C783.982 179.733 789.182 180.4 794.516 180.4C798.782 180.4 803.049 180 807.316 179.2C811.716 178.4 815.649 177.067 819.116 175.2C822.582 173.2 825.382 170.533 827.516 167.2C829.649 163.867 830.716 159.6 830.716 154.4C830.716 149.467 829.382 145.467 826.716 142.4C824.182 139.333 820.716 136.867 816.316 135C812.049 133 807.182 131.4 801.716 130.2C796.249 129 790.649 127.8 784.916 126.6C779.316 125.267 773.782 123.8 768.316 122.2C762.849 120.467 757.916 118.267 753.516 115.6C749.249 112.8 745.782 109.267 743.116 105C740.582 100.6 739.316 95.1333 739.316 88.6C739.316 81.4 740.782 75.2 743.716 70C746.649 64.6667 750.516 60.3333 755.316 57C760.249 53.5333 765.782 51 771.916 49.4C778.182 47.6667 784.582 46.8 791.116 46.8C798.449 46.8 805.249 47.6667 811.516 49.4C817.782 51.1333 823.249 53.8667 827.916 57.6C832.716 61.3333 836.449 66.0667 839.116 71.8C841.916 77.4 843.449 84.1333 843.716 92H825.716ZM941.803 131.4C941.536 127.4 940.603 123.6 939.003 120C937.536 116.4 935.47 113.333 932.803 110.8C930.27 108.133 927.203 106.067 923.603 104.6C920.136 103 916.27 102.2 912.003 102.2C907.603 102.2 903.603 103 900.003 104.6C896.536 106.067 893.536 108.133 891.003 110.8C888.47 113.467 886.47 116.6 885.003 120.2C883.536 123.667 882.67 127.4 882.403 131.4H941.803ZM958.203 160.2C955.936 171.8 950.936 180.533 943.203 186.4C935.47 192.267 925.736 195.2 914.003 195.2C905.736 195.2 898.536 193.867 892.403 191.2C886.403 188.533 881.336 184.8 877.203 180C873.07 175.2 869.936 169.467 867.803 162.8C865.803 156.133 864.67 148.867 864.403 141C864.403 133.133 865.603 125.933 868.003 119.4C870.403 112.867 873.736 107.2 878.003 102.4C882.403 97.6 887.536 93.8667 893.403 91.2C899.403 88.5333 905.936 87.2 913.003 87.2C922.203 87.2 929.803 89.1333 935.803 93C941.936 96.7333 946.803 101.533 950.403 107.4C954.136 113.267 956.67 119.667 958.003 126.6C959.47 133.533 960.07 140.133 959.803 146.4H882.403C882.27 150.933 882.803 155.267 884.003 159.4C885.203 163.4 887.136 167 889.803 170.2C892.47 173.267 895.87 175.733 900.003 177.6C904.136 179.467 909.003 180.4 914.603 180.4C921.803 180.4 927.67 178.733 932.203 175.4C936.87 172.067 939.936 167 941.403 160.2H958.203ZM976.825 89.6H992.825V111.4H993.225C997.358 103 1002.43 96.8 1008.43 92.8C1014.43 88.8 1022.03 86.9333 1031.23 87.2V105.2C1024.43 105.2 1018.63 106.133 1013.83 108C1009.03 109.867 1005.16 112.6 1002.23 116.2C999.292 119.8 997.158 124.2 995.825 129.4C994.492 134.467 993.825 140.333 993.825 147V193H976.825V89.6ZM1062.03 71H1045.03V50.2H1062.03V71ZM1045.03 89.6H1062.03V193H1045.03V89.6ZM1160.16 131.4C1159.9 127.4 1158.96 123.6 1157.36 120C1155.9 116.4 1153.83 113.333 1151.16 110.8C1148.63 108.133 1145.56 106.067 1141.96 104.6C1138.5 103 1134.63 102.2 1130.36 102.2C1125.96 102.2 1121.96 103 1118.36 104.6C1114.9 106.067 1111.9 108.133 1109.36 110.8C1106.83 113.467 1104.83 116.6 1103.36 120.2C1101.9 123.667 1101.03 127.4 1100.76 131.4H1160.16ZM1176.56 160.2C1174.3 171.8 1169.3 180.533 1161.56 186.4C1153.83 192.267 1144.1 195.2 1132.36 195.2C1124.1 195.2 1116.9 193.867 1110.76 191.2C1104.76 188.533 1099.7 184.8 1095.56 180C1091.43 175.2 1088.3 169.467 1086.16 162.8C1084.16 156.133 1083.03 148.867 1082.76 141C1082.76 133.133 1083.96 125.933 1086.36 119.4C1088.76 112.867 1092.1 107.2 1096.36 102.4C1100.76 97.6 1105.9 93.8667 1111.76 91.2C1117.76 88.5333 1124.3 87.2 1131.36 87.2C1140.56 87.2 1148.16 89.1333 1154.16 93C1160.3 96.7333 1165.16 101.533 1168.76 107.4C1172.5 113.267 1175.03 119.667 1176.36 126.6C1177.83 133.533 1178.43 140.133 1178.16 146.4H1100.76C1100.63 150.933 1101.16 155.267 1102.36 159.4C1103.56 163.4 1105.5 167 1108.16 170.2C1110.83 173.267 1114.23 175.733 1118.36 177.6C1122.5 179.467 1127.36 180.4 1132.96 180.4C1140.16 180.4 1146.03 178.733 1150.56 175.4C1155.23 172.067 1158.3 167 1159.76 160.2H1176.56ZM1206.18 160.4C1206.32 164.133 1207.18 167.333 1208.78 170C1210.38 172.533 1212.45 174.6 1214.98 176.2C1217.65 177.667 1220.58 178.733 1223.78 179.4C1227.12 180.067 1230.52 180.4 1233.98 180.4C1236.65 180.4 1239.45 180.2 1242.38 179.8C1245.32 179.4 1247.98 178.667 1250.38 177.6C1252.92 176.533 1254.98 175 1256.58 173C1258.18 170.867 1258.98 168.2 1258.98 165C1258.98 160.6 1257.32 157.267 1253.98 155C1250.65 152.733 1246.45 150.933 1241.38 149.6C1236.45 148.133 1231.05 146.867 1225.18 145.8C1219.32 144.6 1213.85 143 1208.78 141C1203.85 138.867 1199.72 135.933 1196.38 132.2C1193.05 128.467 1191.38 123.267 1191.38 116.6C1191.38 111.4 1192.52 106.933 1194.78 103.2C1197.18 99.4667 1200.18 96.4667 1203.78 94.2C1207.52 91.8 1211.65 90.0667 1216.18 89C1220.85 87.8 1225.45 87.2 1229.98 87.2C1235.85 87.2 1241.25 87.7333 1246.18 88.8C1251.12 89.7333 1255.45 91.4667 1259.18 94C1263.05 96.4 1266.12 99.7333 1268.38 104C1270.65 108.133 1271.98 113.333 1272.38 119.6H1255.38C1255.12 116.267 1254.25 113.533 1252.78 111.4C1251.32 109.133 1249.45 107.333 1247.18 106C1244.92 104.667 1242.38 103.733 1239.58 103.2C1236.92 102.533 1234.18 102.2 1231.38 102.2C1228.85 102.2 1226.25 102.4 1223.58 102.8C1221.05 103.2 1218.72 103.933 1216.58 105C1214.45 105.933 1212.72 107.267 1211.38 109C1210.05 110.6 1209.38 112.733 1209.38 115.4C1209.38 118.333 1210.38 120.8 1212.38 122.8C1214.52 124.667 1217.18 126.267 1220.38 127.6C1223.58 128.8 1227.18 129.867 1231.18 130.8C1235.18 131.6 1239.18 132.467 1243.18 133.4C1247.45 134.333 1251.58 135.467 1255.58 136.8C1259.72 138.133 1263.32 139.933 1266.38 142.2C1269.58 144.333 1272.12 147.067 1273.98 150.4C1275.98 153.733 1276.98 157.867 1276.98 162.8C1276.98 169.067 1275.65 174.267 1272.98 178.4C1270.45 182.533 1267.05 185.867 1262.78 188.4C1258.65 190.933 1253.92 192.667 1248.58 193.6C1243.38 194.667 1238.18 195.2 1232.98 195.2C1227.25 195.2 1221.78 194.6 1216.58 193.4C1211.38 192.2 1206.78 190.267 1202.78 187.6C1198.78 184.8 1195.58 181.2 1193.18 176.8C1190.78 172.267 1189.45 166.8 1189.18 160.4H1206.18Z"/>
<path fill="url(#paint1_linear_170_164)" d="M615.663 69.08H602.823V61.16H637.923V69.08H625.083V104H615.663V69.08ZM644.663 61.16H657.923L667.943 90.62H668.063L677.543 61.16H690.803V104H681.983V73.64H681.863L671.363 104H664.103L653.603 73.94H653.483V104H644.663V61.16Z"/>
</g>
<defs>
<filter color-interpolation-filters="sRGB" filterUnits="userSpaceOnUse" height="157.4" width="1279.37" y="42.8" x="1.61562" id="filter0_f_170_164">
<feFlood result="BackgroundImageFix" flood-opacity="0"/>
<feBlend result="shape" in2="BackgroundImageFix" in="SourceGraphic" mode="normal"/>
<feGaussianBlur result="effect1_foregroundBlur_170_164" stdDeviation="0.5"/>
</filter>
<linearGradient gradientUnits="userSpaceOnUse" y2="0" x2="636.5" y1="239" x1="636.5" id="paint0_linear_170_164">
<stop stop-color="#FF7E83"/>
<stop stop-opacity="0.3" stop-color="#666666" offset="1"/>
</linearGradient>
<linearGradient gradientUnits="userSpaceOnUse" y2="38" x2="648.5" y1="160" x1="648.5" id="paint1_linear_170_164">
<stop stop-color="#FF7E83"/>
<stop stop-opacity="0.3" stop-color="#666666" offset="1"/>
</linearGradient>
</defs>
</svg>